<?xml version="1.0" encoding="UTF-8"?>
<svg version="1.1" xmlns="http://www.w3.org/2000/svg" width="1024" height="1024">
<path d="M0 0 C337.92 0 675.84 0 1024 0 C1024 337.92 1024 675.84 1024 1024 C686.08 1024 348.16 1024 0 1024 C0 686.08 0 348.16 0 0 Z " fill="#FDFDFC" transform="translate(0,0)"/>
<path d="M0 0 C4.77238038 3.18732986 9.08868923 6.80573094 13.37109375 10.6171875 C15.93504008 12.89199314 18.55056773 15.05217902 21.24609375 17.16796875 C21.6121875 16.76707031 21.97828125 16.36617188 22.35546875 15.953125 C35.65730692 1.98619492 51.92224887 -7.56980442 71.40625 -8.234375 C90.17776405 -8.48919193 106.94924112 -3.43925585 121.24609375 9.16796875 C121.99632812 9.82410156 122.7465625 10.48023438 123.51953125 11.15625 C136.40768148 23.18665644 143.81357764 39.75124824 144.58203125 57.32421875 C144.86174627 73.98039838 142.63499498 89.08680964 135.24609375 104.16796875 C134.81683594 105.06515625 134.38757813 105.96234375 133.9453125 106.88671875 C123.09847024 128.15264048 103.83109307 146.60678525 85.24609375 161.16796875 C84.10492847 162.09669913 82.96571425 163.02783031 81.828125 163.9609375 C72.60901817 171.49275058 63.04088499 178.40818324 53.24609375 185.16796875 C51.79542865 186.17557357 50.34490716 187.1833852 48.89453125 188.19140625 C47.49126861 189.16331392 46.08763661 190.13468855 44.68359375 191.10546875 C44.05332275 191.54189697 43.42305176 191.9783252 42.77368164 192.42797852 C41.55460709 193.2658199 40.33076986 194.09677773 39.10205078 194.92041016 C37.81510721 195.78548272 36.54071625 196.66941118 35.27685547 197.56787109 C28.41578256 202.24019678 21.300416 202.69001361 13.24609375 201.16796875 C8.74503816 199.44858742 5.12087851 197.00576803 1.24609375 194.16796875 C0.10427281 193.36258313 -1.03901451 192.55927331 -2.18359375 191.7578125 C-4.58276575 190.0668795 -6.9638838 188.35373531 -9.3359375 186.625 C-12.31464371 184.4646288 -15.35764972 182.42649636 -18.44140625 180.41796875 C-51.19213563 158.7299023 -87.62786155 130.16152427 -99.75390625 91.16796875 C-100.23150391 89.64429688 -100.23150391 89.64429688 -100.71875 88.08984375 C-105.04274545 71.59091179 -104.26402366 53.24667201 -98.75390625 37.16796875 C-98.39167969 36.08257812 -98.02945313 34.9971875 -97.65625 33.87890625 C-94.91016655 26.52498786 -91.00937554 20.95176564 -85.75390625 15.16796875 C-85.01269531 14.32234375 -84.27148438 13.47671875 -83.5078125 12.60546875 C-73.83978016 2.19129927 -62.42850945 -3.38416121 -48.75390625 -6.83203125 C-48.13 -7.00710205 -47.50609375 -7.18217285 -46.86328125 -7.36254883 C-31.5264207 -10.77606536 -13.41608722 -7.70152375 0 0 Z " fill="#FCFCFC" transform="translate(241.75390625,369.83203125)"/>
<path d="M0 0 C4.81833745 2.54779896 7.46500985 5.39502954 9.1875 10.5625 C8.86727347 16.43331972 6.28093317 20.12653238 1.97949219 24.03076172 C1.47063477 24.47436035 0.96177734 24.91795898 0.4375 25.375 C-0.09842773 25.85340332 -0.63435547 26.33180664 -1.18652344 26.82470703 C-5.08439685 30.27496116 -9.09007811 33.57419583 -13.1875 36.78515625 C-16.74328952 39.5853405 -20.24403672 42.45036209 -23.75 45.3125 C-30.47960514 50.79101823 -37.26585469 56.18984843 -44.11035156 61.52392578 C-46.15856086 63.12385775 -48.20043725 64.73167866 -50.2421875 66.33984375 C-102.91903139 107.72632252 -102.91903139 107.72632252 -124.52001953 105.41113281 C-133.65593685 103.89657436 -142.36581963 100.22781155 -151 97 C-153.52411311 96.07505565 -156.0487714 95.15174908 -158.57421875 94.23046875 C-162.46545307 92.80843272 -166.35554111 91.38343762 -170.24194336 89.94824219 C-177.2201537 87.3719812 -184.20265042 84.81933545 -191.25 82.4375 C-192.2387915 82.0969458 -192.2387915 82.0969458 -193.24755859 81.74951172 C-201.78295648 78.91612067 -210.13903369 77.63328091 -219.125 77.6875 C-220.02790771 77.68878906 -220.93081543 77.69007813 -221.86108398 77.69140625 C-229.07384523 77.79320053 -235.81920976 78.77703747 -242.84765625 80.34375 C-246 81 -246 81 -250 81 C-250 61.53 -250 42.06 -250 22 C-201.10675676 -2.44662162 -201.10675676 -2.44662162 -179.4375 3.5625 C-166.33510821 8.23325034 -154.97302911 16.12377536 -143.5 23.8125 C-141.35825529 25.24588462 -139.21540098 26.67744816 -137.06872559 28.10343933 C-135.7468618 28.9816163 -134.42775042 29.8639559 -133.11193848 30.75117493 C-126.871187 34.89922844 -122.35232495 36.2128007 -114.9375 36.375 C-104.13016274 36.82453333 -93.92219993 39.61842651 -85 46 C-83.03944291 48.94083564 -82.68785455 49.68127952 -82.625 53 C-82.59664062 53.680625 -82.56828125 54.36125 -82.5390625 55.0625 C-83 57 -83 57 -84.44189453 58.58520508 C-88.31994717 60.73001469 -92.02243616 60.52522652 -96.390625 60.57421875 C-97.31975204 60.59202896 -98.24887909 60.60983917 -99.2061615 60.62818909 C-102.22111624 60.67211745 -105.23473888 60.68451592 -108.25 60.6875 C-109.27010162 60.6915686 -110.29020325 60.69563721 -111.34121704 60.6998291 C-126.56085165 60.70163076 -139.65397145 59.54936135 -153.64990234 53.08007812 C-157.69712719 51.22001967 -161.85660666 49.63166358 -166 48 C-166.309375 48.94875 -166.61875 49.8975 -166.9375 50.875 C-168 54 -168 54 -169 56 C-168.27562744 56.12906738 -167.55125488 56.25813477 -166.80493164 56.39111328 C-164.11170499 56.97575139 -161.69485312 57.76554113 -159.12109375 58.7421875 C-157.73760742 59.25845703 -157.73760742 59.25845703 -156.32617188 59.78515625 C-154.42690618 60.50171491 -152.52844259 61.22040386 -150.63085938 61.94140625 C-147.76777548 63.00738489 -144.89371924 64.02029827 -142 65 C-141.10966064 65.30220459 -140.21932129 65.60440918 -139.30200195 65.91577148 C-130.57560761 68.49171318 -121.94352778 68.42356074 -112.92651367 68.33618164 C-110.30681824 68.31244853 -107.68813627 68.31565929 -105.06835938 68.32226562 C-103.37499403 68.31669103 -101.6816329 68.30958253 -99.98828125 68.30078125 C-99.21930008 68.30169266 -98.45031891 68.30260406 -97.65803528 68.30354309 C-91.04625787 68.21853664 -84.42801816 67.85975859 -79.0625 63.75 C-75.85891284 59.47855045 -74.76445355 55.9256859 -74.9375 50.625 C-75.83895475 44.90939327 -78.39612265 41.43552177 -83 38 C-88.13530444 35.2222311 -93.55739238 33.09079765 -99 31 C-90.13351967 26.46824339 -82.03804607 24.8710266 -72 26 C-69.21151507 27.01219026 -68.14163677 27.85836323 -66 30 C-65.67 30.99 -65.34 31.98 -65 33 C-61.81828336 30.96880781 -58.63722586 28.9365872 -55.45675659 26.90344238 C-54.31992367 26.17678973 -53.1829813 25.45030829 -52.04592896 24.72399902 C-46.06820203 20.90494002 -40.09812352 17.07631898 -34.16796875 13.18359375 C-33.28077148 12.60182373 -32.39357422 12.02005371 -31.47949219 11.4206543 C-29.83313852 10.33863373 -28.18909943 9.25307976 -26.54785156 8.16333008 C-17.95135719 2.51645006 -10.6708705 -2.11417515 0 0 Z " fill="#04123C" transform="translate(376,542)"/>
<path d="M0 0 C4.77238038 3.18732986 9.08868923 6.80573094 13.37109375 10.6171875 C15.93504008 12.89199314 18.55056773 15.05217902 21.24609375 17.16796875 C21.6121875 16.76707031 21.97828125 16.36617188 22.35546875 15.953125 C35.65730692 1.98619492 51.92224887 -7.56980442 71.40625 -8.234375 C90.17776405 -8.48919193 106.94924112 -3.43925585 121.24609375 9.16796875 C121.99632812 9.82410156 122.7465625 10.48023438 123.51953125 11.15625 C136.40768148 23.18665644 143.81357764 39.75124824 144.58203125 57.32421875 C144.86174627 73.98039838 142.63499498 89.08680964 135.24609375 104.16796875 C134.81683594 105.06515625 134.38757813 105.96234375 133.9453125 106.88671875 C123.09847024 128.15264048 103.83109307 146.60678525 85.24609375 161.16796875 C84.10492847 162.09669913 82.96571425 163.02783031 81.828125 163.9609375 C72.60901817 171.49275058 63.04088499 178.40818324 53.24609375 185.16796875 C51.79542865 186.17557357 50.34490716 187.1833852 48.89453125 188.19140625 C47.49126861 189.16331392 46.08763661 190.13468855 44.68359375 191.10546875 C44.05332275 191.54189697 43.42305176 191.9783252 42.77368164 192.42797852 C41.55460709 193.2658199 40.33076986 194.09677773 39.10205078 194.92041016 C37.81510721 195.78548272 36.54071625 196.66941118 35.27685547 197.56787109 C28.41578256 202.24019678 21.300416 202.69001361 13.24609375 201.16796875 C8.74503816 199.44858742 5.12087851 197.00576803 1.24609375 194.16796875 C0.10427281 193.36258313 -1.03901451 192.55927331 -2.18359375 191.7578125 C-4.58276575 190.0668795 -6.9638838 188.35373531 -9.3359375 186.625 C-12.31464371 184.4646288 -15.35764972 182.42649636 -18.44140625 180.41796875 C-51.19213563 158.7299023 -87.62786155 130.16152427 -99.75390625 91.16796875 C-100.23150391 89.64429688 -100.23150391 89.64429688 -100.71875 88.08984375 C-105.04274545 71.59091179 -104.26402366 53.24667201 -98.75390625 37.16796875 C-98.39167969 36.08257812 -98.02945313 34.9971875 -97.65625 33.87890625 C-94.91016655 26.52498786 -91.00937554 20.95176564 -85.75390625 15.16796875 C-85.01269531 14.32234375 -84.27148438 13.47671875 -83.5078125 12.60546875 C-73.83978016 2.19129927 -62.42850945 -3.38416121 -48.75390625 -6.83203125 C-48.13 -7.00710205 -47.50609375 -7.18217285 -46.86328125 -7.36254883 C-31.5264207 -10.77606536 -13.41608722 -7.70152375 0 0 Z M-75.56640625 29.10546875 C-86.06647232 43.80556125 -87.94228866 61.87278867 -85.16796875 79.41015625 C-81.40088648 98.55714842 -69.27255024 115.32986276 -55.3828125 128.57421875 C-53.75390625 130.16796875 -53.75390625 130.16796875 -51.75390625 132.73046875 C-48.80035825 136.33010538 -45.29893221 139.16351657 -41.75390625 142.16796875 C-40.37912109 143.37453125 -40.37912109 143.37453125 -38.9765625 144.60546875 C-24.65828127 157.09519483 -8.92298523 167.56873174 7.07421875 177.765625 C8.99676595 179.00698191 10.89194317 180.27745262 12.77734375 181.57421875 C13.73640625 182.22390625 14.69546875 182.87359375 15.68359375 183.54296875 C16.46605469 184.08695313 17.24851562 184.6309375 18.0546875 185.19140625 C21.02775024 186.51630052 22.1826225 186.27584196 25.24609375 185.16796875 C27.75187444 183.62928084 30.11277364 182.06428642 32.49609375 180.35546875 C33.19138184 179.86626953 33.88666992 179.37707031 34.60302734 178.87304688 C36.07533366 177.83594231 37.5451737 176.79532886 39.01269531 175.75146484 C41.19299324 174.2056174 43.38512255 172.67837257 45.58203125 171.15625 C58.23646019 162.36242118 70.33820551 153.19637108 81.58203125 142.64453125 C83.75770312 140.62198585 85.96773848 138.69628611 88.24609375 136.79296875 C106.1954026 121.11054983 125.50818032 97.24993865 127.44873047 72.59326172 C127.95026326 62.34307371 128.31444697 51.76866593 124.24609375 42.16796875 C123.6428125 40.70037109 123.6428125 40.70037109 123.02734375 39.203125 C117.75134286 27.58126748 109.74600486 18.83502848 98.24609375 13.16796875 C93.96861882 11.57905394 89.66574219 10.29561568 85.24609375 9.16796875 C84.58480469 8.97460938 83.92351562 8.78125 83.2421875 8.58203125 C71.35647076 6.11650097 58.62841638 9.05454157 48.2578125 15.01953125 C41.14189404 20.09573767 34.64678167 26.40219818 28.71875 32.82202148 C25.67664536 35.60238005 21.62096299 35.05085636 17.71875 34.96875 C11.7154301 33.58440739 8.54379081 29.09593189 4.64501953 24.65625 C-5.67597533 13.67600834 -18.7078362 8.28453254 -33.50390625 7.79296875 C-50.84060221 8.07349781 -64.20768296 16.57170512 -75.56640625 29.10546875 Z " fill="#041039" transform="translate(241.75390625,369.83203125)"/>
<path d="M0 0 C61.5933296 0 61.5933296 0 77.2578125 14.9921875 C88.45788409 27.89989332 90.84796216 42.01465596 90.17919922 58.62060547 C89.08320862 73.17309105 83.00067344 87.233908 72 97 C49.30487177 112.91445554 29.65869142 108 0 108 C0 72.36 0 36.72 0 0 Z " fill="#04113A" transform="translate(435,370)"/>
<path d="M0 0 C6.93 0 13.86 0 21 0 C21 12.54 21 25.08 21 38 C21.66 38 22.32 38 23 38 C23.24878906 37.39542969 23.49757813 36.79085937 23.75390625 36.16796875 C25.19797455 33.65556152 26.46135813 32.77420758 28.9375 31.3125 C29.62714844 30.89613281 30.31679688 30.47976563 31.02734375 30.05078125 C37.33454161 26.69110556 45.20564487 27.14099334 52.01953125 28.68359375 C61.52872629 31.88879096 67.92534134 36.51098297 72.74609375 45.390625 C78.62325964 57.6209889 78.89211433 72.40254289 75.03515625 85.390625 C71.55093373 94.17349534 65.03140195 101.93253999 56.3125 105.875 C47.01501527 109.03263632 38.132481 109.19552407 29.10546875 105.1484375 C26.56726768 103.76396419 24.71542385 102.33921434 23 100 C23 99.34 23 98.68 23 98 C22.34 98 21.68 98 21 98 C21 100.97 21 103.94 21 107 C14.07 107 7.14 107 0 107 C0 71.69 0 36.38 0 0 Z " fill="#04103A" transform="translate(620,506)"/>
<path d="M0 0 C7.26 0 14.52 0 22 0 C22 14.52 22 29.04 22 44 C36.19 44 50.38 44 65 44 C65 29.48 65 14.96 65 0 C72.26 0 79.52 0 87 0 C87 35.31 87 70.62 87 107 C79.74 107 72.48 107 65 107 C65 92.48 65 77.96 65 63 C50.81 63 36.62 63 22 63 C22 77.52 22 92.04 22 107 C14.74 107 7.48 107 0 107 C0 71.69 0 36.38 0 0 Z " fill="#04123F" transform="translate(435,506)"/>
<path d="M0 0 C0.79792969 0.4125 1.59585938 0.825 2.41796875 1.25 C9.87360104 5.6459507 14.8736696 12.30928835 17.9375 20.375 C20.77038366 31.52947942 20.964876 45.94076661 15 56 C14.443125 57.03125 13.88625 58.0625 13.3125 59.125 C6.51371669 67.57754141 -0.79591212 72.39909158 -11.375 74.75 C-12.57125 74.8325 -13.7675 74.915 -15 75 C-15.87140625 75.06316406 -16.7428125 75.12632812 -17.640625 75.19140625 C-28.03645886 75.61322673 -38.18873455 73.44961827 -46.29296875 66.625 C-54.91639528 58.41597154 -58.96139565 49.80928118 -59.34399414 37.8203125 C-59.51699355 24.87396266 -56.88983405 14.72480387 -47.609375 5.1640625 C-34.62302688 -5.60605255 -15.00711652 -7.85970096 0 0 Z " fill="#041039" transform="translate(591,404)"/>
<path d="M0 0 C5.14808576 4.20357809 7.8038644 8.8376712 9.625 15.1875 C9.86550903 18.07296753 9.86550903 18.07296753 9.85205078 21.10107422 C9.85189972 22.24180389 9.85174866 23.38253357 9.85159302 24.55783081 C9.84127045 25.77366852 9.83094788 26.98950623 9.8203125 28.2421875 C9.8174826 29.49887238 9.81465271 30.75555725 9.81173706 32.05032349 C9.80246123 35.37450864 9.78452381 38.69841424 9.7623291 42.02252197 C9.74178812 45.42124021 9.73271778 48.81998744 9.72265625 52.21875 C9.70063376 58.87508662 9.66612308 65.53125508 9.625 72.1875 C3.025 72.1875 -3.575 72.1875 -10.375 72.1875 C-10.375 69.5475 -10.375 66.9075 -10.375 64.1875 C-10.82488281 64.58582031 -11.27476562 64.98414063 -11.73828125 65.39453125 C-18.91930474 71.30916182 -26.94644 73.79174578 -36.25390625 73.41015625 C-43.3674957 72.66342587 -50.15546594 70.71158458 -55.109375 65.2890625 C-60.15280693 58.82866637 -61.22326671 53.35053038 -60.375 45.1875 C-58.83639385 39.62107774 -55.6866016 35.72732161 -50.94921875 32.49609375 C-41.83450302 27.86266466 -30.84220903 26.60388788 -20.8359375 24.99609375 C-17.45440748 24.20605231 -15.21174594 23.14931089 -12.375 21.1875 C-12.58355404 16.38910161 -12.58355404 16.38910161 -15.01953125 12.48046875 C-18.09009097 10.79497079 -20.32286845 10.78829446 -23.8125 10.8125 C-25.48119141 10.80089844 -25.48119141 10.80089844 -27.18359375 10.7890625 C-30.75177048 11.23453866 -32.58418997 11.93319489 -35.375 14.1875 C-36.365 16.6625 -36.365 16.6625 -37.375 19.1875 C-43.975 19.1875 -50.575 19.1875 -57.375 19.1875 C-56.26000686 10.26755486 -54.16724477 6.10015142 -47.4375 0.57421875 C-34.2358737 -8.30187469 -13.16677291 -9.18780308 0 0 Z " fill="#041039" transform="translate(762.375,405.8125)"/>
<path d="M0 0 C9.18659107 6.3679779 13.47295028 14.91943892 15.625 25.6796875 C15.625 30.2996875 15.625 34.9196875 15.625 39.6796875 C-2.195 39.6796875 -20.015 39.6796875 -38.375 39.6796875 C-36.63679521 48.55875892 -36.63679521 48.55875892 -31.375 54.6796875 C-27.11045213 57.28580009 -22.23842854 57.27049132 -17.375 56.6796875 C-14.02338754 55.29754628 -14.02338754 55.29754628 -11.375 53.6796875 C-10.715 53.6796875 -10.055 53.6796875 -9.375 53.6796875 C-9.065625 53.0403125 -8.75625 52.4009375 -8.4375 51.7421875 C-7.375 49.6796875 -7.375 49.6796875 -6.375 48.6796875 C-4.81327255 48.59283147 -3.24770656 48.57266531 -1.68359375 48.58203125 C-0.73935547 48.58525391 0.20488281 48.58847656 1.17773438 48.59179688 C2.17095703 48.60017578 3.16417969 48.60855469 4.1875 48.6171875 C5.18458984 48.62169922 6.18167969 48.62621094 7.20898438 48.63085938 C9.68104849 48.64268743 12.15299518 48.65916901 14.625 48.6796875 C12.45487052 57.26630559 8.45820508 63.15948123 1 68.0546875 C-9.06338114 73.54380449 -21.30174932 75.45922096 -32.51171875 72.98828125 C-39.09140442 71.01520111 -44.33743328 68.35581445 -49.375 63.6796875 C-49.92929687 63.16664063 -50.48359375 62.65359375 -51.0546875 62.125 C-59.02100728 53.84161276 -60.77589463 42.03341739 -60.65234375 30.96875 C-59.72354409 19.95397093 -55.20378324 10.14517483 -47.3125 2.4296875 C-33.77061054 -8.17861978 -14.72977191 -8.1885903 0 0 Z " fill="#041039" transform="translate(895.375,405.3203125)"/>
<path d="M0 0 C7.31472321 5.75739504 9.49395637 13.7964726 10.75390625 22.6796875 C10.99679958 26.65526835 10.9886612 30.61198639 10.94921875 34.59375 C10.94638885 35.68940277 10.94355896 36.78505554 10.94064331 37.91390991 C10.92954138 41.37761847 10.90445564 44.84105847 10.87890625 48.3046875 C10.86886354 50.66796499 10.85973996 53.03124657 10.8515625 55.39453125 C10.8313453 61.1564341 10.79217733 66.91776386 10.75390625 72.6796875 C3.49390625 72.6796875 -3.76609375 72.6796875 -11.24609375 72.6796875 C-11.271875 69.2353125 -11.29765625 65.7909375 -11.32421875 62.2421875 C-11.36268147 58.88940417 -11.40782827 55.53677243 -11.45361328 52.18408203 C-11.48175907 49.86221611 -11.50300524 47.54025551 -11.51708984 45.21826172 C-11.5386073 41.87157951 -11.58530499 38.52602801 -11.63671875 35.1796875 C-11.63794739 34.1491626 -11.63917603 33.1186377 -11.64044189 32.05688477 C-11.77179042 25.52621997 -12.77363539 21.25368476 -16.24609375 15.6796875 C-20.106417 13.10613867 -24.72349702 12.98456352 -29.24609375 13.6796875 C-32.74034186 14.96484834 -35.45644774 16.76539097 -37.91333008 19.61010742 C-39.97136311 24.35010547 -39.72720369 28.99013089 -39.7578125 34.10546875 C-39.7757637 35.20819626 -39.7937149 36.31092377 -39.81221008 37.44706726 C-39.86630379 40.96206869 -39.90020665 44.47693437 -39.93359375 47.9921875 C-39.96676755 50.37827409 -40.00125727 52.76434277 -40.03710938 55.15039062 C-40.1245021 60.99350904 -40.18458136 66.83601008 -40.24609375 72.6796875 C-47.50609375 72.6796875 -54.76609375 72.6796875 -62.24609375 72.6796875 C-62.24609375 47.5996875 -62.24609375 22.5196875 -62.24609375 -3.3203125 C-55.31609375 -3.3203125 -48.38609375 -3.3203125 -41.24609375 -3.3203125 C-40.91609375 -1.3403125 -40.58609375 0.6396875 -40.24609375 2.6796875 C-39.67761719 2.26976562 -39.10914063 1.85984375 -38.5234375 1.4375 C-26.28233443 -7.10470548 -13.15896808 -7.73518471 0 0 Z " fill="#030F3A" transform="translate(682.24609375,405.3203125)"/>
<path d="M0 0 C6.93 0 13.86 0 21 0 C21.03738281 3.36058594 21.07476563 6.72117187 21.11328125 10.18359375 C21.15957284 13.46026899 21.21077881 16.73683345 21.26245117 20.01342773 C21.29558052 22.27996006 21.32364928 24.54657251 21.34643555 26.81323242 C21.38020235 30.08286488 21.43252972 33.35177098 21.48828125 36.62109375 C21.49467117 37.62458359 21.5010611 38.62807343 21.50764465 39.66197205 C21.64809196 46.47579231 21.98303412 54.07176841 27.125 59.0625 C32.56986027 60.83799791 37.09098052 60.81310089 42.375 58.5625 C47.79661815 53.26996799 48.33889488 46.10437593 48.49235535 38.81443787 C48.50194023 37.34201378 48.50194023 37.34201378 48.51171875 35.83984375 C48.52966995 34.80936417 48.54762115 33.77888458 48.56611633 32.71717834 C48.6198766 29.45732598 48.65400482 26.19761713 48.6875 22.9375 C48.72070333 20.71417288 48.75519574 18.49086462 48.79101562 16.26757812 C48.87798666 10.84503533 48.93834942 5.42312492 49 0 C55.93 0 62.86 0 70 0 C70 25.74 70 51.48 70 78 C63.07 78 56.14 78 49 78 C48.505 74.04 48.505 74.04 48 70 C47.59910156 70.39832031 47.19820312 70.79664063 46.78515625 71.20703125 C40.71278662 76.86631451 34.84639687 79.07529859 26.5625 79.4375 C18.40539966 79.14129245 12.28031677 76.7701943 6.5625 70.875 C-0.48626571 63.0757394 -0.42412971 52.71240966 -0.29296875 42.7734375 C-0.28872391 41.54460846 -0.28447906 40.31577942 -0.28010559 39.04971313 C-0.2634279 35.1579111 -0.22579504 31.26664327 -0.1875 27.375 C-0.17243911 24.72266377 -0.15875317 22.07031936 -0.14648438 19.41796875 C-0.11355998 12.94510935 -0.06185268 6.47264499 0 0 Z " fill="#03103B" transform="translate(537,535)"/>
<path d="M0 0 C4.29 0 8.58 0 13 0 C13.495 3.96 13.495 3.96 14 8 C14.72445312 8.23074219 15.44890625 8.46148437 16.1953125 8.69921875 C28.56047772 12.87040115 28.56047772 12.87040115 32.24609375 19.109375 C34.58629175 23.93552728 35 26.3414891 35 32 C29.39 32 23.78 32 18 32 C17.01 29.69 16.02 27.38 15 25 C11.54580825 21.94057303 8.39241795 21.53907195 3.93359375 21.69921875 C0.71317165 22.2001733 -1.71689471 23.71689471 -4 26 C-4.27672047 28.03146057 -4.27672047 28.03146057 -4.3125 30.375 C-4.34988281 31.16648437 -4.38726562 31.95796875 -4.42578125 32.7734375 C-4.20905596 35.12862193 -4.20905596 35.12862193 -2.26733398 36.54760742 C0.08526384 38.0546177 2.00860739 38.76380701 4.703125 39.46484375 C5.60160156 39.70783203 6.50007813 39.95082031 7.42578125 40.20117188 C8.35777344 40.44416016 9.28976562 40.68714844 10.25 40.9375 C20.56344872 43.62828022 29.18461415 46.22105876 35.609375 55.265625 C38.3840295 60.72140631 37.90335011 67.53999865 36.37890625 73.37890625 C33.67879649 79.51115553 28.65640569 84.33154303 22.5859375 87.1015625 C19.24755579 88.26510271 16.55166177 89 13 89 C13 92.63 13 96.26 13 100 C8.71 100 4.42 100 0 100 C0 96.37 0 92.74 0 89 C-1.155 88.9175 -2.31 88.835 -3.5 88.75 C-10.9066046 87.78164533 -16.20867324 84.66034579 -20.8125 78.79296875 C-23.91988004 74.10123376 -24 70.63753888 -24 65 C-18.39 65 -12.78 65 -7 65 C-6.01 67.31 -5.02 69.62 -4 72 C-0.13742929 75.62116004 3.67438323 76.33565953 8.9296875 76.296875 C12.62296599 75.7672728 15.40716277 73.59283723 18 71 C18.07179964 69.48071962 18.08392007 67.95832518 18.0625 66.4375 C18.05347656 65.61121094 18.04445313 64.78492188 18.03515625 63.93359375 C18.02355469 63.29550781 18.01195312 62.65742188 18 62 C12.67224366 58.93937402 7.38081944 57.14929677 1.5 55.5 C-7.78578179 52.85333271 -15.36289077 50.40689993 -21 42 C-23.04705835 35.85882494 -23.13713407 28.35949982 -21.05859375 22.21875 C-17.57359056 15.66388506 -12.8821089 11.80902404 -6 9 C-2.625 8.8125 -2.625 8.8125 0 9 C0 6.03 0 3.06 0 0 Z " fill="#041039" transform="translate(257,418)"/>
<path d="M0 0 C28.05263158 0 28.05263158 0 35.9375 6.375 C36.9584375 7.674375 36.9584375 7.674375 38 9 C39.051875 10.299375 39.051875 10.299375 40.125 11.625 C46.43175684 22.97716232 46.77107493 36.71442838 43.375 49.0625 C40.76258687 56.51203144 37.05470004 61.37328801 30 65 C27.49287905 65.68070435 25.10702642 66.23142915 22.5625 66.6875 C21.28503906 66.93886719 20.00757813 67.19023437 18.69140625 67.44921875 C12.50075083 68.1760151 6.23317315 68 0 68 C0 45.56 0 23.12 0 0 Z " fill="#FCFCFC" transform="translate(457,390)"/>
<path d="M0 0 C6.6 0 13.2 0 20 0 C20 5.94 20 11.88 20 18 C25.61 18 31.22 18 37 18 C37 23.28 37 28.56 37 34 C31.39 34 25.78 34 20 34 C20.05104487 39.4822186 20.11396262 44.96159371 20.20751953 50.44287109 C20.23573006 52.30703553 20.25694421 54.1713196 20.27099609 56.03564453 C20.29242484 58.71709441 20.33907298 61.39710586 20.390625 64.078125 C20.39185364 64.91055725 20.39308228 65.7429895 20.39434814 66.60064697 C20.4905626 70.40902928 20.54796122 72.3842344 22.84960938 75.51953125 C25.69652062 77.47953009 27.81904505 77.60082805 31.25 77.75 C33.1475 77.8325 35.045 77.915 37 78 C37 83.28 37 88.56 37 94 C29.21202207 96.59599264 17.22654212 96.49059805 9.625 93.375 C5.24224547 90.93043572 2.2472881 87.4945762 0 83 C-0.09003966 81.42708792 -0.11756509 79.85038425 -0.11352539 78.27490234 C-0.11344986 77.29403656 -0.11337433 76.31317078 -0.11329651 75.30258179 C-0.10813522 74.24108917 -0.10297394 73.17959656 -0.09765625 72.0859375 C-0.0962413 71.00116119 -0.09482635 69.91638489 -0.09336853 68.79873657 C-0.08775802 65.32413 -0.07520372 61.84958719 -0.0625 58.375 C-0.05748635 56.02343843 -0.05292321 53.67187585 -0.04882812 51.3203125 C-0.03778517 45.54685032 -0.02051347 39.77343598 0 34 C-4.29 34 -8.58 34 -13 34 C-13 28.72 -13 23.44 -13 18 C-8.71 18 -4.42 18 0 18 C0 12.06 0 6.12 0 0 Z " fill="#030F39" transform="translate(794,383)"/>
<path d="M0 0 C4.81603378 2.44458114 6.67677874 5.64217247 8.86328125 10.3515625 C11.34604487 17.9819227 10.88833542 27.99783505 7.984375 35.4453125 C5.40078982 39.8383075 1.6510006 42.75565605 -3.13671875 44.3515625 C-9.9939628 45.08284202 -14.60273024 44.55739377 -20.13671875 40.3515625 C-25.34185853 34.0209871 -26.62585832 27.28064559 -26.44921875 19.265625 C-25.76842924 12.91726279 -24.03053006 6.52780024 -19.07421875 2.2265625 C-13.39321888 -1.39960763 -6.47639631 -1.9654146 0 0 Z " fill="#FBFBFB" transform="translate(579.13671875,417.6484375)"/>
<path d="M0 0 C5.40298747 3.60199165 8.13485772 7.68405461 9.8125 13.875 C10.61014485 22.30592059 10.87317364 30.72505743 5.8125 37.875 C2.67115322 41.27060723 -0.4960014 43.55681896 -5.203125 44.11328125 C-11.13502504 44.31031989 -14.36243182 43.37553966 -19.1875 39.875 C-24.40649919 34.51494678 -25.4864434 28.88675041 -25.5625 21.5625 C-25.4574994 15.26864071 -25.02162093 10.02431358 -21.1875 4.875 C-15.03511114 -0.91383861 -7.98832643 -2.81940933 0 0 Z " fill="#FBFBFB" transform="translate(666.1875,552.125)"/>
<path d="M0 0 C7.26 0 14.52 0 22 0 C22 14.52 22 29.04 22 44 C36.19 44 50.38 44 65 44 C65 29.48 65 14.96 65 0 C72.26 0 79.52 0 87 0 C87 35.31 87 70.62 87 107 C79.74 107 72.48 107 65 107 C65 93.14 65 79.28 65 65 C65.33 65 65.66 65 66 65 C66 78.2 66 91.4 66 105 C72.6 105 79.2 105 86 105 C86 70.68 86 36.36 86 1 C79.73 1 73.46 1 67 1 C67.01160156 4.00867188 67.02320313 7.01734375 67.03515625 10.1171875 C67.0429493 13.02294815 67.04902465 15.92870764 67.05493164 18.83447266 C67.05996831 20.85791543 67.06679789 22.88135456 67.07543945 24.90478516 C67.08753412 27.80892843 67.09323488 30.71302369 67.09765625 33.6171875 C67.10281754 34.52556366 67.10797882 35.43393982 67.11329651 36.36984253 C67.11337204 37.21056305 67.11344757 38.05128357 67.11352539 38.91748047 C67.115746 39.65916473 67.11796661 40.400849 67.12025452 41.16500854 C67 43 67 43 66 45 C59.60962769 45.02527062 53.21926817 45.04283317 46.82885742 45.05493164 C44.65307127 45.05997308 42.47728853 45.06680607 40.30151367 45.07543945 C37.18146933 45.08751338 34.06146962 45.09323005 30.94140625 45.09765625 C29.96224747 45.10281754 28.98308868 45.10797882 27.97425842 45.11329651 C26.62297096 45.11340981 26.62297096 45.11340981 25.24438477 45.11352539 C24.44718521 45.115746 23.64998566 45.11796661 22.82862854 45.12025452 C21 45 21 45 20 44 C19.90731001 42.64905018 19.88252674 41.29332909 19.88647461 39.93920898 C19.88655014 39.07839218 19.88662567 38.21757538 19.88670349 37.33067322 C19.89186478 36.39526199 19.89702606 35.45985077 19.90234375 34.49609375 C19.9037587 33.54307877 19.90517365 32.59006378 19.90663147 31.60816956 C19.91224848 28.55124835 19.92480384 25.49439923 19.9375 22.4375 C19.94251281 20.37044376 19.94707609 18.30338638 19.95117188 16.23632812 C19.96137442 11.15750167 19.98094644 6.07883194 20 1 C13.73 1 7.46 1 1 1 C1 35.32 1 69.64 1 105 C7.27 105 13.54 105 20 105 C19.98839844 101.99132812 19.97679687 98.98265625 19.96484375 95.8828125 C19.9570507 92.97705185 19.95097535 90.07129236 19.94506836 87.16552734 C19.94003169 85.14208457 19.93320211 83.11864544 19.92456055 81.09521484 C19.91246588 78.19107157 19.90676512 75.28697631 19.90234375 72.3828125 C19.89718246 71.47443634 19.89202118 70.56606018 19.88670349 69.63015747 C19.88659019 68.36907669 19.88659019 68.36907669 19.88647461 67.08251953 C19.884254 66.34083527 19.88203339 65.599151 19.87974548 64.83499146 C20 63 20 63 21 61 C35.52 61 50.04 61 65 61 C65 61.33 65 61.66 65 62 C50.81 62 36.62 62 22 62 C22 76.85 22 91.7 22 107 C14.74 107 7.48 107 0 107 C0 71.69 0 36.38 0 0 Z " fill="#000216" transform="translate(435,506)"/>
<path d="M0 0 C0.86001568 12.88112371 0.86001568 12.88112371 -2.0625 16.625 C-7.84976416 21.30406464 -12.74572898 22.69088295 -20 22 C-23.31217963 20.65059348 -25.4792773 19.5207227 -28 17 C-28.63676845 11.36005089 -28.63676845 11.36005089 -28 9 C-23.79594651 4.28368789 -18.23006756 3.52578745 -12.3125 2.25 C-10.86907227 1.91935547 -10.86907227 1.91935547 -9.39648438 1.58203125 C-2.39525912 0 -2.39525912 0 0 0 Z " fill="#F9FAFA" transform="translate(751,442)"/>
<path d="M0 0 C4.46403531 2.11454304 7.0831264 4.42080195 9 9 C9 11.31 9 13.62 9 16 C-1.89 16 -12.78 16 -24 16 C-20.62200957 5.86602871 -20.62200957 5.86602871 -17.4375 3.5 C-16.83808594 3.0359375 -16.23867188 2.571875 -15.62109375 2.09375 C-10.89988508 -1.0916438 -5.50771149 -0.51837285 0 0 Z " fill="#FBFBFC" transform="translate(880,416)"/>
<path d="M0 0 C5.61 0 11.22 0 17 0 C17 0.33 17 0.66 17 1 C12.38 1 7.76 1 3 1 C3 24.43 3 47.86 3 72 C8.28 72 13.56 72 19 72 C19 57.81 19 43.62 19 29 C19.33 29 19.66 29 20 29 C20 43.52 20 58.04 20 73 C20.66 73 21.32 73 22 73 C22 73.66 22 74.32 22 75 C14.74 75 7.48 75 0 75 C0 50.25 0 25.5 0 0 Z " fill="#091A4B" transform="translate(620,403)"/>
<path d="M0 0 C6.93 0 13.86 0 21 0 C21 25.74 21 51.48 21 78 C14.07 78 7.14 78 0 78 C0 77.34 0 76.68 0 76 C6.6 76 13.2 76 20 76 C20 51.58 20 27.16 20 2 C14.06 2 8.12 2 2 2 C2.01160156 4.7225 2.02320313 7.445 2.03515625 10.25 C2.042971 12.90771366 2.04903399 15.56542601 2.05493164 18.22314453 C2.05993819 20.06006449 2.0667454 21.89698051 2.07543945 23.73388672 C2.08766697 26.38510108 2.09326523 29.03626243 2.09765625 31.6875 C2.10281754 32.49928711 2.10797882 33.31107422 2.11329651 34.14746094 C2.11378442 39.18734589 1.72096204 44.01064333 1 49 C0.67 49 0.34 49 0 49 C0 32.83 0 16.66 0 0 Z " fill="#030620" transform="translate(586,535)"/>
<path d="M0 0 C0.33 0 0.66 0 1 0 C1.33 24.09 1.66 48.18 2 73 C8.6 73 15.2 73 22 73 C22 73.66 22 74.32 22 75 C14.74 75 7.48 75 0 75 C0 50.25 0 25.5 0 0 Z " fill="#2B3C68" transform="translate(620,403)"/>
<path d="M0 0 C0.33 0 0.66 0 1 0 C1 16.5 1 33 1 50 C-6.26 50 -13.52 50 -21 50 C-21 49.34 -21 48.68 -21 48 C-14.4 48 -7.8 48 -1 48 C-1.0309375 44.7515625 -1.0309375 44.7515625 -1.0625 41.4375 C-1.12155091 27.62246644 -0.49192578 13.80401293 0 0 Z " fill="#3F4557" transform="translate(692,428)"/>
<path d="M0 0 C0.33 0 0.66 0 1 0 C1 17.16 1 34.32 1 52 C1.66 52.33 2.32 52.66 3 53 C2.67 53.66 2.34 54.32 2 55 C0.68 55 -0.64 55 -2 55 C-2 40.15 -2 25.3 -2 10 C-1.67 10 -1.34 10 -1 10 C-0.67 6.7 -0.34 3.4 0 0 Z " fill="#2D3E66" transform="translate(128,568)"/>
<path d="M0 0 C0.69738281 0.00451172 1.39476562 0.00902344 2.11328125 0.01367188 C3.82555803 0.0253998 5.53779033 0.04333347 7.25 0.0625 C7.745 1.5475 7.745 1.5475 8.25 3.0625 C6.56583984 3.01029297 6.56583984 3.01029297 4.84765625 2.95703125 C-8.49549891 2.26907177 -8.49549891 2.26907177 -19.9375 8.125 C-20.535625 8.764375 -21.13375 9.40375 -21.75 10.0625 C-25 11.3125 -25 11.3125 -27.75 12.0625 C-24.86041517 7.97818298 -22.25515434 5.95244831 -17.75 3.8125 C-16.71875 3.31234375 -15.6875 2.8121875 -14.625 2.296875 C-9.63180421 0.15305724 -5.4086928 -0.06645842 0 0 Z " fill="#0D1536" transform="translate(872.75,399.9375)"/>
<path d="M0 0 C0.78375 0.04125 1.5675 0.0825 2.375 0.125 C1.715 0.785 1.055 1.445 0.375 2.125 C-0.615 2.125 -1.605 2.125 -2.625 2.125 C-2.625 5.755 -2.625 9.385 -2.625 13.125 C-6.915 13.125 -11.205 13.125 -15.625 13.125 C-15.295 9.495 -14.965 5.865 -14.625 2.125 C-14.295 2.125 -13.965 2.125 -13.625 2.125 C-13.625 5.095 -13.625 8.065 -13.625 11.125 C-10.655 11.125 -7.685 11.125 -4.625 11.125 C-4.686875 8.959375 -4.686875 8.959375 -4.75 6.75 C-4.8203125 4.2890625 -4.8203125 4.2890625 -4.625 2.125 C-2.625 0.125 -2.625 0.125 0 0 Z " fill="#070B28" transform="translate(272.625,504.875)"/>
<path d="M0 0 C0.33 0 0.66 0 1 0 C1 2.64 1 5.28 1 8 C7.6 8 14.2 8 21 8 C21 8.66 21 9.32 21 10 C13.74 10 6.48 10 -1 10 C-0.67 6.7 -0.34 3.4 0 0 Z " fill="#2A3142" transform="translate(621,468)"/>
<path d="M0 0 C6.93 0 13.86 0 21 0 C20.34 1.98 19.68 3.96 19 6 C18.67 5.01 18.34 4.02 18 3 C11.73 2.67 5.46 2.34 -1 2 C-0.67 1.34 -0.34 0.68 0 0 Z " fill="#010222" transform="translate(889,454)"/>
<path d="M0 0 C-3.77852518 2.05622068 -7.60210135 2.99992407 -11.7578125 4.0234375 C-14.16298774 4.81832637 -14.16298774 4.81832637 -15.3046875 7.1015625 C-15.53414062 7.72804688 -15.76359375 8.35453125 -16 9 C-17.32 8.67 -18.64 8.34 -20 8 C-13.53313871 2.78055358 -8.6041704 -0.4097224 0 0 Z " fill="#090C23" transform="translate(726,435)"/>
<path d="M0 0 C-1.2375 0.4125 -2.475 0.825 -3.75 1.25 C-7.3894779 2.59724533 -9.29680204 4.20669544 -12 7 C-15.25 8.25 -15.25 8.25 -18 9 C-14.47852281 3.39764993 -6.84911902 -2.56841963 0 0 Z " fill="#090D20" transform="translate(863,403)"/>
<path d="M0 0 C4.29 0 8.58 0 13 0 C12.01 1.485 12.01 1.485 11 3 C8.3984375 3.29296875 8.3984375 3.29296875 5.375 3.1875 C3.87066406 3.14689453 3.87066406 3.14689453 2.3359375 3.10546875 C1.56507813 3.07066406 0.79421875 3.03585937 0 3 C0 2.01 0 1.02 0 0 Z " fill="#121C46" transform="translate(657,611)"/>
<path d="M0 0 C0.33 0 0.66 0 1 0 C1.55353075 11.70615034 1.55353075 11.70615034 -2 16 C-2.66 15.01 -3.32 14.02 -4 13 C-3.125 9.8125 -3.125 9.8125 -2 7 C-1.67 7 -1.34 7 -1 7 C-0.67 4.69 -0.34 2.38 0 0 Z " fill="#0C1840" transform="translate(303,590)"/>
<path d="M0 0 C2.475 0.495 2.475 0.495 5 1 C5 1.66 5 2.32 5 3 C5.804375 3.37125 5.804375 3.37125 6.625 3.75 C9.56424252 5.29696975 12.25754408 7.13014369 15 9 C14.01 9.495 14.01 9.495 13 10 C10.8304939 8.52485505 8.66436293 7.0451561 6.5 5.5625 C5.87996094 5.14162109 5.25992188 4.72074219 4.62109375 4.28710938 C3.06289602 3.21691863 1.52921949 2.11120482 0 1 C0 0.67 0 0.34 0 0 Z " fill="#0B0E23" transform="translate(235,557)"/>
<path d="M0 0 C4.29 0 8.58 0 13 0 C13 0.33 13 0.66 13 1 C10.69 1.33 8.38 1.66 6 2 C6 2.33 6 2.66 6 3 C4.02 3 2.04 3 0 3 C0 2.01 0 1.02 0 0 Z " fill="#151E42" transform="translate(558,611)"/>
<path d="M0 0 C0.33 0 0.66 0 1 0 C1.13277344 0.84304688 1.26554687 1.68609375 1.40234375 2.5546875 C1.57894531 3.65039062 1.75554687 4.74609375 1.9375 5.875 C2.19853516 7.51082031 2.19853516 7.51082031 2.46484375 9.1796875 C2.85551159 11.93821546 2.85551159 11.93821546 4 14 C2.68 14 1.36 14 0 14 C0 9.38 0 4.76 0 0 Z " fill="#0B1031" transform="translate(126,609)"/>
<path d="M0 0 C0.33 0 0.66 0 1 0 C1 1.98 1 3.96 1 6 C0.34 6 -0.32 6 -1 6 C-1.66 7.65 -2.32 9.3 -3 11 C-3.66 10.67 -4.32 10.34 -5 10 C-3.35 6.7 -1.7 3.4 0 0 Z " fill="#0E1229" transform="translate(501,436)"/>
<path d="M0 0 C0.66 0.33 1.32 0.66 2 1 C2 1.66 2 2.32 2 3 C0.03852126 4.38938077 -1.96166576 5.7260411 -4 7 C-4.33 6.34 -4.66 5.68 -5 5 C-3.35 3.35 -1.7 1.7 0 0 Z " fill="#050E2E" transform="translate(649,403)"/>
<path d="M0 0 C0.99 1.32 1.98 2.64 3 4 C2.1875 7.75 2.1875 7.75 1 11 C0.34 11 -0.32 11 -1 11 C-0.67 7.37 -0.34 3.74 0 0 Z " fill="#151A34" transform="translate(140,417)"/>
<path d="M0 0 C0.66 0.33 1.32 0.66 2 1 C1.67 1.99 1.34 2.98 1 4 C-2.0625 5.1875 -2.0625 5.1875 -5 6 C-4.75 4.125 -4.75 4.125 -4 2 C-2.0625 0.6875 -2.0625 0.6875 0 0 Z " fill="#0C1E46" transform="translate(353,582)"/>
<path d="M0 0 C4.28359673 1.8855148 6.15103592 4.35965701 9 8 C8.01 8 7.02 8 6 8 C4.39453125 6.25 4.39453125 6.25 2.8125 4 C2.28269531 3.2575 1.75289062 2.515 1.20703125 1.75 C0.80871094 1.1725 0.41039062 0.595 0 0 Z " fill="#1B1E32" transform="translate(180,493)"/>
</svg>
